
<svg width="100" height="24" viewBox="0 0 100 24" fill="none" xmlns="http://www.w3.org/2000/svg">
  <path d="M14.4 7.3H18V11.8H14.4V7.3Z" fill="#9B87F5"/>
  <path d="M7.3 7.3H10.9V11.8H7.3V7.3Z" fill="#9B87F5"/>
  <path d="M0 7.3H3.7V11.8H0V7.3Z" fill="#9B87F5"/>
  <path d="M7.3 0H10.9V4.5H7.3V0Z" fill="#9B87F5"/>
  <path d="M0 0H3.7V4.5H0V0Z" fill="#9B87F5"/>
  <path d="M7.3 14.6H10.9V19.1H7.3V14.6Z" fill="#9B87F5"/>
  <path d="M0 14.6H3.7V19.1H0V14.6Z" fill="#9B87F5"/>
  <path d="M14.4 0H18V4.5H14.4V0Z" fill="#9B87F5"/>
  <path d="M14.4 14.6H18V19.1H14.4V14.6Z" fill="#9B87F5"/>
  <path d="M36.9 5.7L33 16.3H29.4L25.5 5.7H28.3L31.1 13.4L33.9 5.7H36.9Z" fill="#1A1F2C"/>
  <path d="M37.9 16.3V5.7H40.8V16.3H37.9Z" fill="#1A1F2C"/>
  <path d="M50.9 10.4H53.6V16.3H50.9V15.2C50.3 16 49.3 16.4 48.1 16.4C45.8 16.4 44 14.6 44 11.8V11.7C44 9 45.8 7.1 48.1 7.1C49.2 7.1 50.2 7.5 50.9 8.2V5.7H53.6V10.4ZM50.9 11.8V11.7C50.9 10.6 50.2 9.8 49.1 9.8C48 9.8 47.3 10.5 47.3 11.7V11.8C47.3 13 48 13.7 49.1 13.7C50.2 13.7 50.9 12.9 50.9 11.8Z" fill="#1A1F2C"/>
  <path d="M62.8 16.3V15.3C62.1 16 61.1 16.4 59.9 16.4C58.1 16.4 56.8 15.3 56.8 13.5V13.4C56.8 11.4 58.2 10.4 60.4 10.4C61.3 10.4 62.1 10.6 62.8 10.9V10.8C62.8 9.8 62.1 9.3 60.9 9.3C59.9 9.3 59 9.6 58.2 10L57.3 7.9C58.4 7.3 59.8 7 61.3 7C64.1 7 65.5 8.5 65.5 11V16.3H62.8ZM62.8 12.6C62.3 12.3 61.7 12.2 61 12.2C60 12.2 59.4 12.6 59.4 13.3V13.4C59.4 14.1 59.9 14.5 60.8 14.5C61.9 14.5 62.8 13.9 62.8 13V12.6Z" fill="#1A1F2C"/>
  <path d="M74.3 16.3V15.3C73.6 16 72.6 16.4 71.4 16.4C69.6 16.4 68.3 15.3 68.3 13.5V13.4C68.3 11.4 69.7 10.4 71.9 10.4C72.8 10.4 73.6 10.6 74.3 10.9V10.8C74.3 9.8 73.6 9.3 72.4 9.3C71.4 9.3 70.5 9.6 69.7 10L68.8 7.9C69.9 7.3 71.3 7 72.8 7C75.6 7 77 8.5 77 11V16.3H74.3ZM74.3 12.6C73.8 12.3 73.2 12.2 72.5 12.2C71.5 12.2 70.9 12.6 70.9 13.3V13.4C70.9 14.1 71.4 14.5 72.3 14.5C73.4 14.5 74.3 13.9 74.3 13V12.6Z" fill="#1A1F2C"/>
  <path d="M81.7 19.5L82.6 17.3C82.9 17.4 83.2 17.5 83.5 17.5C84.2 17.5 84.6 17.2 84.6 16.5V7.2H87.3V16.6C87.3 18.9 86.1 20 83.9 20C83.1 20 82.3 19.8 81.7 19.5Z" fill="#1A1F2C"/>
  <path d="M89.1 16.3V7.2H91.8V15H96.3V16.3H89.1Z" fill="#1A1F2C"/>
  <path d="M97.2 16.3V7.2H100V16.3H97.2Z" fill="#1A1F2C"/>
</svg>
